<?xml version="1.0" encoding="UTF-8"?>
<svg xmlns="http://www.w3.org/2000/svg" viewBox="0 0 448 512">
    <symbol id="github" viewBox="0 0 448 512">
        <path d="M400 32H48C21.5 32 0 53.5 0 80v352c0 26.5 21.5 48 48 48h352c26.5 0 48-21.5 48-48V80c0-26.5-21.5-48-48-48zM277.3 415.7c-8.4 1.5-11.5-3.7-11.5-8 0-5.4.2-33 .2-55.3 0-15.6-5.2-25.5-11.3-30.7 37-4.1 76-9.2 76-73.1 0-18.2-6.5-27.3-17.1-39 1.7-4.3 7.4-22-1.7-45-13.9-4.3-45.7 17.9-45.7 17.9-13.2-3.7-27.5-5.6-41.6-5.6-14.1 0-28.4 1.9-41.6 5.6 0 0-31.8-22.2-45.7-17.9-9.1 22.9-3.5 40.6-1.7 45-10.6 11.7-15.6 20.8-15.6 39 0 63.6 37.3 69 74.3 73.1-4.8 4.3-9.1 11.7-10.6 22.3-9.5 4.3-33.8 11.7-48.3-13.9-9.1-15.8-25.5-17.1-25.5-17.1-16.2-.2-1.1 10.2-1.1 10.2 10.8 5 18.4 24.2 18.4 24.2 9.7 29.7 56.1 19.7 56.1 19.7 0 13.9.2 36.5.2 40.6 0 4.3-3 9.5-11.5 8-66-22.1-112.2-84.9-112.2-158.3 0-91.8 70.2-161.5 162-161.5S388 165.6 388 257.4c.1 73.4-44.7 136.3-110.7 158.3zm-98.1-61.1c-1.9.4-3.7-.4-3.9-1.7-.2-1.5 1.1-2.8 3-3.2 1.9-.2 3.7.6 3.9 1.9.3 1.3-1 2.6-3 3zm-9.5-.9c0 1.3-1.5 2.4-3.5 2.4-2.2.2-3.7-.9-3.7-2.4 0-1.3 1.5-2.4 3.5-2.4 1.9-.2 3.7.9 3.7 2.4zm-13.7-1.1c-.4 1.3-2.4 1.9-4.1 1.3-1.9-.4-3.2-1.9-2.8-3.2.4-1.3 2.4-1.9 4.1-1.5 2 .6 3.3 2.1 2.8 3.4zm-12.3-5.4c-.9 1.1-2.8.9-4.3-.6-1.5-1.3-1.9-3.2-.9-4.1.9-1.1 2.8-.9 4.3.6 1.3 1.3 1.8 3.3.9 4.1zm-9.1-9.1c-.9.6-2.6 0-3.7-1.5s-1.1-3.2 0-3.9c1.1-.9 2.8-.2 3.7 1.3 1.1 1.5 1.1 3.3 0 4.1zm-6.5-9.7c-.9.9-2.4.4-3.5-.6-1.1-1.3-1.3-2.8-.4-3.5.9-.9 2.4-.4 3.5.6 1.1 1.3 1.3 2.8.4 3.5zm-6.7-7.4c-.4.9-1.7 1.1-2.8.4-1.3-.6-1.9-1.7-1.5-2.6.4-.6 1.5-.9 2.8-.4 1.3.7 1.9 1.8 1.5 2.6z"/>
    </symbol>
    <symbol id="linkedin" viewBox="0 0 448 512">
        <path d="M416 32H31.9C14.3 32 0 46.5 0 64.3v383.4C0 465.5 14.3 480 31.9 480H416c17.6 0 32-14.5 32-32.3V64.3c0-17.8-14.4-32.3-32-32.3zM135.4 416H69V202.2h66.5V416zm-33.2-243c-21.3 0-38.5-17.3-38.5-38.5S80.9 96 102.2 96c21.2 0 38.5 17.3 38.5 38.5 0 21.3-17.2 38.5-38.5 38.5zm282.1 243h-66.4V312c0-24.8-.5-56.7-34.5-56.7-34.6 0-39.9 27-39.9 54.9V416h-66.4V202.2h63.7v29.2h.9c8.9-16.8 30.6-34.5 62.9-34.5 67.2 0 79.7 44.3 79.7 101.9V416z"/>
    </symbol>
    <symbol id="arrow-up" viewBox="0 0 384 512">
        <path d="M214.6 41.4c-12.5-12.5-32.8-12.5-45.3 0l-160 160c-12.5 12.5-12.5 32.8 0 45.3s32.8 12.5 45.3 0L160 141.2V448c0 17.7 14.3 32 32 32s32-14.3 32-32V141.2L329.4 246.6c12.5 12.5 32.8 12.5 45.3 0s12.5-32.8 0-45.3l-160-160z"/>
    </symbol>
    <symbol id="arrowUp" viewBox="0 0 512 512">
        <path d="M256 512A256 256 0 1 0 256 0a256 256 0 1 0 0 512zM135.1 217.4l107.1-99.9c3.8-3.5 8.7-5.5 13.8-5.5s10.1 2 13.8 5.5l107.1 99.9c4.5 4.2 7.1 10.1 7.1 16.3c0 12.3-10 22.3-22.3 22.3H304v96c0 17.7-14.3 32-32 32H240c-17.7 0-32-14.3-32-32V256H150.3C138 256 128 246 128 233.7c0-6.2 2.6-12.1 7.1-16.3z"/>
    </symbol>
    <symbol id="download" viewBox="0 0 512 512">
        <path d="M288 32c0-17.7-14.3-32-32-32s-32 14.3-32 32V274.7l-73.4-73.4c-12.5-12.5-32.8-12.5-45.3 0s-12.5 32.8 0 45.3l128 128c12.5 12.5 32.8 12.5 45.3 0l128-128c12.5-12.5 12.5-32.8 0-45.3s-32.8-12.5-45.3 0L288 274.7V32zM64 352c-35.3 0-64 28.7-64 64v32c0 35.3 28.7 64 64 64H448c35.3 0 64-28.7 64-64V416c0-35.3-28.7-64-64-64H346.5l-45.3 45.3c-25 25-65.5 25-90.5 0L165.5 352H64zm368 56a24 24 0 1 1 0 48 24 24 0 1 1 0-48z"/>
    </symbol>
    <symbol id="html" viewBox="0 0 32 32">
        <path d="M4.46 28.802L1.892.001h28.216l-2.57 28.797L15.982 32z" fill="#e44d26"/><path d="M25.337 26.964l2.197-24.608H16v27.197z" fill="#f16529"/><path d="M15.988 5.888H7.142l.953 10.682H16v-3.532h-4.674l-.323-3.617H16V5.888zM16 22.2l-.015.004-3.934-1.062-.25-2.817H8.253l.495 5.546 7.236 2 .016-.005z" fill="#ebebeb"/><path d="M15.988 16.57h4.35l-.4 4.58-3.94 1.063v3.675l7.242-2.007.97-10.845H16zm8.764-9.734l.084-.948h-8.85V9.42h8.532l.07-.794z" fill="#fff"/>
    </symbol>
    <symbol
    id="css"
    xmlns:dc="http://purl.org/dc/elements/1.1/"
    xmlns:cc="http://creativecommons.org/ns#"
    xmlns:rdf="http://www.w3.org/1999/02/22-rdf-syntax-ns#"
    xmlns:svg="http://www.w3.org/2000/svg"
    xmlns="http://www.w3.org/2000/svg"
    xmlns:sodipodi="http://sodipodi.sourceforge.net/DTD/sodipodi-0.dtd"
    xmlns:inkscape="http://www.inkscape.org/namespaces/inkscape"
    viewBox="0 0 64 64"
    version="1.1"
    inkscape:version="0.92.4 (5da689c313, 2019-01-14)"
    sodipodi:docname="w3_css-icon.svg">
        <defs
            id="defs3478" />
        <sodipodi:namedview
            id="base"
            pagecolor="#ffffff"
            bordercolor="#666666"
            borderopacity="1.0"
            inkscape:pageopacity="0.0"
            inkscape:pageshadow="2"
            inkscape:zoom="4.8766667"
            inkscape:cx="27.142857"
            inkscape:cy="28.571429"
            inkscape:document-units="px"
            inkscape:current-layer="layer1"
            showgrid="false"
            fit-margin-top="0"
            fit-margin-left="0"
            fit-margin-right="0"
            fit-margin-bottom="0"
            inkscape:window-width="1850"
            inkscape:window-height="1016"
            inkscape:window-x="70"
            inkscape:window-y="27"
            inkscape:window-maximized="1"
            units="px" />
        <metadata
            id="metadata3481">
            <rdf:RDF>
            <cc:Work
                rdf:about="">
                <dc:format>image/svg+xml</dc:format>
                <dc:type
                rdf:resource="http://purl.org/dc/dcmitype/StillImage" />
                <dc:title></dc:title>
            </cc:Work>
            </rdf:RDF>
        </metadata>
        <g
            inkscape:label="Calque 1"
            inkscape:groupmode="layer"
            id="layer1"
            transform="translate(-193.633,-739.48031)">
            <polygon
            style="fill:#264de4"
            points="437.367,100.62 404.321,470.819 255.778,512 107.644,470.877 74.633,100.62 "
            id="polygon2989"
            transform="matrix(0.15557406,0,0,0.15557392,185.82204,723.82646)" />
            <polygon
            style="fill:#2965f1"
            points="256,480.523 376.03,447.246 404.27,130.894 256,130.894 "
            id="polygon2991"
            transform="matrix(0.15557406,0,0,0.15557392,185.82204,723.82646)" />
            <polygon
            style="fill:#ebebeb"
            points="256,268.217 150.31,268.217 154.38,313.627 256,313.627 "
            id="polygon2993"
            transform="matrix(0.15557406,0,0,0.15557392,185.82204,723.82646)" />
            <polygon
            style="fill:#ebebeb"
            points="256,176.305 255.843,176.305 142.132,176.305 146.26,221.716 256,221.716 "
            id="polygon2995"
            transform="matrix(0.15557406,0,0,0.15557392,185.82204,723.82646)" />
            <polygon
            style="fill:#ebebeb"
            points="156.409,336.333 162.771,407.634 255.791,433.457 256,433.399 256,386.153 255.801,386.206 205.227,372.55 201.994,336.333 177.419,336.333 "
            id="polygon2997"
            transform="matrix(0.15557406,0,0,0.15557392,185.82204,723.82646)" />
            <polygon
            style="fill:#ffffff"
            points="311.761,313.627 306.49,372.521 255.843,386.191 255.843,433.435 348.937,407.634 349.62,399.962 360.291,280.411 361.399,268.217 369.597,176.305 255.843,176.305 255.843,221.716 319.831,221.716 315.699,268.217 255.843,268.217 255.843,313.627 "
            id="polygon3005"
            transform="matrix(0.15557406,0,0,0.15557392,185.82204,723.82646)" />
        </g>
    </symbol>
    <symbol id="sass" x="0px" y="0px" viewBox="0 0 48 48">
        <path fill="#f06292" d="M39.867,25.956c-1.538,0.008-2.87,0.377-3.986,0.928c-0.408-0.815-0.822-1.532-0.891-2.065	c-0.081-0.622-0.175-0.994-0.077-1.735c0.098-0.741,0.527-1.791,0.521-1.87c-0.006-0.079-0.096-0.456-0.983-0.463	c-0.887-0.006-1.646,0.171-1.735,0.405c-0.089,0.234-0.26,0.761-0.366,1.311c-0.155,0.804-1.771,3.673-2.688,5.173	c-0.3-0.586-0.555-1.102-0.608-1.51c-0.081-0.622-0.175-0.994-0.077-1.735c0.098-0.741,0.527-1.791,0.521-1.87	c-0.006-0.079-0.096-0.456-0.983-0.463c-0.887-0.006-1.646,0.171-1.735,0.405c-0.089,0.234-0.185,0.781-0.366,1.311	c-0.182,0.529-2.329,5.314-2.892,6.555c-0.287,0.632-0.536,1.14-0.712,1.486c-0.001-0.001-0.001-0.002-0.001-0.002	s-0.011,0.023-0.029,0.062c-0.151,0.295-0.24,0.458-0.24,0.458s0.001,0.002,0.003,0.006c-0.12,0.217-0.248,0.418-0.311,0.418	c-0.044,0-0.133-0.577,0.019-1.369c0.32-1.66,1.087-4.248,1.08-4.338c-0.004-0.046,0.143-0.497-0.501-0.733	c-0.626-0.229-0.849,0.153-0.906,0.154c-0.055,0.001-0.096,0.135-0.096,0.135s0.697-2.911-1.33-2.911	c-1.268,0-3.024,1.387-3.889,2.644c-0.546,0.298-1.715,0.936-2.954,1.617c-0.476,0.262-0.962,0.529-1.423,0.783	c-0.031-0.035-0.063-0.069-0.095-0.104c-2.459-2.623-7.003-4.478-6.811-8.005c0.07-1.282,0.516-4.658,8.733-8.752	c6.731-3.354,12.12-2.431,13.051-0.386c1.33,2.923-2.88,8.354-9.87,9.138c-2.663,0.299-4.066-0.734-4.415-1.118	c-0.367-0.405-0.422-0.423-0.559-0.347c-0.223,0.124-0.082,0.481,0,0.694c0.209,0.543,1.065,1.506,2.525,1.986	c1.285,0.422,4.412,0.653,8.193-0.81c4.236-1.638,7.543-6.196,6.571-10.005c-0.988-3.874-7.412-5.148-13.492-2.988	C12.44,9.332,8.523,11.35,5.706,13.984c-3.349,3.132-3.883,5.859-3.663,6.998c0.782,4.048,6.361,6.684,8.595,8.637	c-0.11,0.061-0.214,0.118-0.308,0.17c-1.12,0.554-5.373,2.78-6.437,5.131c-1.207,2.667,0.192,4.581,1.118,4.839	c2.869,0.798,5.813-0.638,7.396-2.998c1.582-2.359,1.389-5.432,0.663-6.834c-0.009-0.017-0.019-0.034-0.028-0.052	c0.289-0.171,0.584-0.345,0.876-0.517c0.57-0.335,1.13-0.647,1.615-0.911c-0.272,0.744-0.471,1.637-0.574,2.926	c-0.122,1.514,0.499,3.471,1.311,4.241c0.358,0.339,0.788,0.347,1.06,0.347c0.945,0,1.376-0.786,1.851-1.716	c0.582-1.14,1.099-2.468,1.099-2.468s-0.648,3.586,1.118,3.586c0.644,0,1.291-0.835,1.58-1.26c0.001,0.005,0.001,0.007,0.001,0.007	s0.017-0.028,0.05-0.083c0.067-0.102,0.105-0.167,0.105-0.167s0.001-0.007,0.003-0.019c0.259-0.449,0.833-1.473,1.693-3.162	c1.112-2.182,2.178-4.916,2.178-4.916s0.099,0.668,0.424,1.774c0.191,0.65,0.597,1.369,0.918,2.059	c-0.258,0.358-0.416,0.563-0.416,0.563s0.001,0.004,0.004,0.011c-0.206,0.274-0.437,0.569-0.679,0.857	c-0.878,1.045-1.923,2.239-2.063,2.583c-0.165,0.406-0.126,0.704,0.193,0.945c0.233,0.175,0.647,0.203,1.08,0.174	c0.789-0.053,1.343-0.249,1.617-0.368c0.427-0.151,0.924-0.388,1.39-0.731c0.861-0.633,1.38-1.538,1.33-2.738	c-0.028-0.661-0.238-1.316-0.505-1.934c0.078-0.112,0.156-0.226,0.235-0.34c1.357-1.984,2.41-4.164,2.41-4.164	s0.099,0.668,0.424,1.774c0.164,0.559,0.489,1.17,0.781,1.768c-1.276,1.037-2.067,2.242-2.342,3.032	c-0.508,1.462-0.11,2.124,0.636,2.275c0.338,0.068,0.816-0.087,1.175-0.239c0.447-0.148,0.984-0.395,1.486-0.764	c0.861-0.633,1.689-1.519,1.639-2.718c-0.023-0.546-0.171-1.088-0.372-1.608c1.082-0.451,2.482-0.701,4.266-0.493	c3.827,0.447,4.577,2.836,4.434,3.836c-0.144,1-0.946,1.55-1.215,1.716c-0.268,0.166-0.35,0.224-0.328,0.347	c0.033,0.179,0.157,0.173,0.386,0.134c0.315-0.053,2.009-0.813,2.082-2.659C46.089,28.509,43.844,25.935,39.867,25.956z M10.37,35.9	c-1.268,1.383-3.038,1.905-3.798,1.465c-0.82-0.475-0.495-2.511,1.06-3.979c0.948-0.894,2.172-1.718,2.984-2.225	c0.185-0.111,0.456-0.274,0.786-0.472c0.055-0.031,0.086-0.048,0.086-0.048l-0.001-0.002c0.064-0.038,0.129-0.077,0.196-0.118	C12.25,32.61,11.701,34.449,10.37,35.9z M19.605,29.623c-0.441,1.076-1.365,3.83-1.928,3.682c-0.483-0.127-0.777-2.22-0.096-4.28	c0.342-1.037,1.074-2.276,1.504-2.757c0.692-0.774,1.454-1.027,1.639-0.713C20.959,25.955,19.882,28.948,19.605,29.623z M27.234,33.263c-0.187,0.098-0.359,0.159-0.438,0.112c-0.059-0.035,0.077-0.164,0.077-0.164s0.954-1.027,1.33-1.494	c0.219-0.272,0.472-0.595,0.748-0.955c0.002,0.036,0.003,0.072,0.003,0.107C28.952,32.099,27.764,32.929,27.234,33.263z M33.111,31.923c-0.14-0.099-0.116-0.42,0.343-1.421c0.18-0.393,0.592-1.054,1.306-1.686c0.083,0.26,0.133,0.509,0.132,0.741	C34.883,31.105,33.779,31.683,33.111,31.923z"></path>
    </symbol>
    <symbol id="tailwind" x="0px" y="0px" viewBox="0 0 48 48">
        <path fill="#00acc1" d="M24,9.604c-6.4,0-10.4,3.199-12,9.597c2.4-3.199,5.2-4.398,8.4-3.599 c1.826,0.456,3.131,1.781,4.576,3.247C27.328,21.236,30.051,24,36,24c6.4,0,10.4-3.199,12-9.598c-2.4,3.199-5.2,4.399-8.4,3.6 c-1.825-0.456-3.13-1.781-4.575-3.247C32.672,12.367,29.948,9.604,24,9.604L24,9.604z M12,24c-6.4,0-10.4,3.199-12,9.598 c2.4-3.199,5.2-4.399,8.4-3.599c1.825,0.457,3.13,1.781,4.575,3.246c2.353,2.388,5.077,5.152,11.025,5.152 c6.4,0,10.4-3.199,12-9.598c-2.4,3.199-5.2,4.399-8.4,3.599c-1.826-0.456-3.131-1.781-4.576-3.246C20.672,26.764,17.949,24,12,24 L12,24z"></path>
    </symbol>
    <symbol id="javascript" preserveAspectRatio="xMinYMin meet" viewBox="0 0 256 256">
        <path fill="#F7DF1E" d="M0 0h256v256H0V0z"></path><path d="M67.312 213.932l19.59-11.856c3.78 6.701 7.218 12.371 15.465 12.371 7.905 0 12.89-3.092 12.89-15.12v-81.798h24.057v82.138c0 24.917-14.606 36.259-35.916 36.259-19.245 0-30.416-9.967-36.087-21.996M152.381 211.354l19.588-11.341c5.157 8.421 11.859 14.607 23.715 14.607 9.969 0 16.325-4.984 16.325-11.858 0-8.248-6.53-11.17-17.528-15.98l-6.013-2.58c-17.357-7.387-28.87-16.667-28.87-36.257 0-18.044 13.747-31.792 35.228-31.792 15.294 0 26.292 5.328 34.196 19.247L210.29 147.43c-4.125-7.389-8.591-10.31-15.465-10.31-7.046 0-11.514 4.468-11.514 10.31 0 7.217 4.468 10.14 14.778 14.608l6.014 2.577c20.45 8.765 31.963 17.7 31.963 37.804 0 21.654-17.012 33.51-39.867 33.51-22.339 0-36.774-10.654-43.819-24.574"></path>
    </symbol>
    <symbol
    id="vuejs"
        xmlns:dc="http://purl.org/dc/elements/1.1/"
        xmlns:cc="http://creativecommons.org/ns#"
        xmlns:rdf="http://www.w3.org/1999/02/22-rdf-syntax-ns#"
        xmlns:svg="http://www.w3.org/2000/svg"
        xmlns="http://www.w3.org/2000/svg"
        xmlns:sodipodi="http://sodipodi.sourceforge.net/DTD/sodipodi-0.dtd"
        xmlns:inkscape="http://www.inkscape.org/namespaces/inkscape"
        aria-label="Vue"
        role="img"
        viewBox="0 0 64 64"
        version="1.1"
        sodipodi:docname="vue-icon.svg"
        inkscape:version="0.92.4 (5da689c313, 2019-01-14)">
        <metadata
            id="metadata14">
            <rdf:RDF>
            <cc:Work
                rdf:about="">
                <dc:format>image/svg+xml</dc:format>
                <dc:type
                rdf:resource="http://purl.org/dc/dcmitype/StillImage" />
                <dc:title></dc:title>
            </cc:Work>
            </rdf:RDF>
        </metadata>
        <defs
            id="defs12" />
        <sodipodi:namedview
            pagecolor="#ffffff"
            bordercolor="#666666"
            borderopacity="1"
            objecttolerance="10"
            gridtolerance="10"
            guidetolerance="10"
            inkscape:pageopacity="0"
            inkscape:pageshadow="2"
            inkscape:window-width="1566"
            inkscape:window-height="855"
            id="namedview10"
            showgrid="false"
            inkscape:zoom="10.546875"
            inkscape:cx="32"
            inkscape:cy="32"
            inkscape:window-x="70"
            inkscape:window-y="27"
            inkscape:window-maximized="0"
            inkscape:current-layer="svg8"
            inkscape:pagecheckerboard="true" />
        <path
            d="M 39.33333,5.5 32,18.33333 24.666667,5.5 H 0 L 32,61 64,5.5 Z"
            id="path4"
            inkscape:connector-curvature="0"
            style="fill:#42b883;stroke-width:0.16666667" />
        <path
            d="M 39.33333,5.5 32,18.33333 24.666667,5.5 H 12.833333 L 32,38.83333 51.16667,5.5 Z"
            id="path6"
            inkscape:connector-curvature="0"
            style="fill:#35495e;stroke-width:0.16666667" />
    </symbol>
    <symbol id="nodejs" viewBox="0 0 32 32" preserveAspectRatio="xMidYMid" fill="#8cc84b">
        <path d="M14.656.427c.8-.453 1.82-.455 2.6 0L29.2 7.16c.747.42 1.247 1.253 1.24 2.114v13.5c.005.897-.544 1.748-1.332 2.16l-11.88 6.702a2.6 2.6 0 0 1-2.639-.073l-3.565-2.06c-.243-.145-.516-.26-.688-.495.152-.204.422-.23.642-.32.496-.158.95-.4 1.406-.656.115-.08.256-.05.366.022l3.04 1.758c.217.125.437-.04.623-.145l11.665-6.583c.144-.07.224-.222.212-.38V9.334c.016-.18-.087-.344-.25-.417L16.19 2.244a.41.41 0 0 0-.465-.001L3.892 8.93c-.16.073-.27.235-.25.415v13.37c-.014.158.07.307.215.375l3.162 1.785c.594.32 1.323.5 1.977.265a1.5 1.5 0 0 0 .971-1.409l.003-13.29c-.014-.197.172-.36.363-.34h1.52c.2-.005.357.207.33.405L12.18 23.88c.001 1.188-.487 2.48-1.586 3.063-1.354.7-3.028.553-4.366-.12l-3.4-1.88c-.8-.4-1.337-1.264-1.332-2.16v-13.5a2.46 2.46 0 0 1 1.282-2.141L14.656.427zM18.1 9.785c1.727-.1 3.576-.066 5.13.785 1.203.652 1.87 2.02 1.892 3.358-.034.18-.222.28-.394.267-.5-.001-1.002.007-1.504-.003-.213.008-.336-.188-.363-.376-.144-.64-.493-1.273-1.095-1.582-.924-.463-1.996-.44-3.004-.43-.736.04-1.527.103-2.15.535-.48.328-.624 1-.453 1.522.16.383.603.506.964.62 2.082.544 4.287.5 6.33 1.207.845.292 1.672.86 1.962 1.745.378 1.186.213 2.604-.63 3.556-.684.784-1.68 1.2-2.675 1.442-1.323.295-2.695.302-4.038.17-1.263-.144-2.577-.476-3.552-1.336-.834-.724-1.24-1.852-1.2-2.94.01-.184.193-.312.37-.297h1.5c.202-.014.35.16.36.35.093.6.322 1.25.854 1.6 1.026.662 2.313.616 3.487.635.973-.043 2.065-.056 2.86-.7.42-.367.543-.98.43-1.508-.123-.446-.6-.653-1-.8-2.055-.65-4.285-.414-6.32-1.15-.826-.292-1.625-.844-1.942-1.693-.443-1.2-.24-2.687.693-3.607.9-.915 2.22-1.268 3.47-1.394z"/>
    </symbol>
    <symbol id="express" viewBox="0 0 32 32">
        <path d="M32 24.795c-1.164.296-1.884.013-2.53-.957l-4.594-6.356-.664-.88-5.365 7.257c-.613.873-1.256 1.253-2.4.944l6.87-9.222-6.396-8.33c1.1-.214 1.86-.105 2.535.88l4.765 6.435 4.8-6.4c.615-.873 1.276-1.205 2.38-.883l-2.48 3.288-3.36 4.375c-.4.5-.345.842.023 1.325L32 24.795zM.008 15.427l.562-2.764C2.1 7.193 8.37 4.92 12.694 8.3c2.527 1.988 3.155 4.8 3.03 7.95H1.48c-.214 5.67 3.867 9.092 9.07 7.346 1.825-.613 2.9-2.042 3.438-3.83.273-.896.725-1.036 1.567-.78-.43 2.236-1.4 4.104-3.45 5.273-3.063 1.75-7.435 1.184-9.735-1.248C1 21.6.434 19.812.18 17.9c-.04-.316-.12-.617-.18-.92q.008-.776.008-1.552zm1.498-.38h12.872c-.084-4.1-2.637-7.012-6.126-7.037-3.83-.03-6.58 2.813-6.746 7.037z"/>
    </symbol>
    <symbol id="mysql" viewBox="0 0 204.8 105.765">
        <path d="M0 96.334h6.747V69.7l10.445 23.227c1.232 2.8 2.92 3.806 6.228 3.806s4.93-.995 6.164-3.806L40.03 69.7v26.644h6.748v-26.6c0-2.595-1.04-3.85-3.18-4.498-5.125-1.6-8.564-.216-10.12 3.244l-10.25 22.923L13.3 68.48c-1.492-3.46-4.995-4.844-10.12-3.244C1.038 65.885 0 67.14 0 69.734v26.6zm52.386-21.686h6.745v14.68c-.063.798.256 2.67 3.952 2.727 1.886.03 14.554 0 14.672 0v-17.48h6.76c.03 0-.007 23.834-.006 23.936.037 5.878-7.294 7.155-10.672 7.254H52.533v-4.54l21.342-.001c4.342-.46 3.83-2.617 3.83-3.344v-1.77h-14.34c-6.672-.06-10.92-2.973-10.973-6.323-.005-.3.144-14.995-.004-15.14z" fill="#00618a"/><path d="M89.716 96.334h19.398c2.27 0 4.477-.475 6.23-1.298 2.92-1.34 4.347-3.157 4.347-5.536v-4.93c0-1.947-1.622-3.763-4.8-4.974-1.687-.65-3.763-.995-5.774-.995h-8.175c-2.724 0-4.022-.822-4.346-2.638-.065-.216-.065-.4-.065-.606v-3.07c0-.173 0-.347.065-.563.324-1.384 1.038-1.774 3.438-2 .195 0 .454-.044.65-.044h19.268v-4.497h-18.944c-2.725 0-4.152.173-5.45.562C91.532 67 89.78 69 89.78 72.46v3.936c0 3.028 3.44 5.623 9.212 6.228.65.043 1.298.086 1.946.086h7.007c.26 0 .52 0 .714.044 2.14.173 3.05.562 3.698 1.34.4.4.52.78.52 1.2v3.936c0 .476-.324 1.082-.973 1.6-.584.52-1.557.865-2.855.952-.26 0-.454.043-.713.043h-18.62v4.498zm72.064-7.828c0 4.628 3.438 7.223 10.38 7.742a29.45 29.45 0 0 0 1.946.086h17.582v-4.498h-17.712c-3.957 0-5.45-.995-5.45-3.374v-23.27h-6.747v23.312zm-37.785.234V72.705c0-4.074 2.86-6.545 8.516-7.325a12.94 12.94 0 0 1 1.821-.13h12.807a13.87 13.87 0 0 1 1.886.13c5.656.78 8.516 3.25 8.516 7.325V88.74c0 3.305-1.215 5.074-4.015 6.227l6.646 6h-7.834l-5.377-4.854-5.413.343h-7.216c-1.235 0-2.535-.174-3.966-.564-4.3-1.17-6.37-3.424-6.37-7.152zm7.283-.4c0 .217.065.433.13.694.4 1.864 2.145 2.904 4.8 2.904h6.13l-5.63-5.083h7.834l4.9 4.433c.905-.482 1.5-1.22 1.7-2.167.065-.216.065-.433.065-.65V73.096c0-.173 0-.4-.065-.607-.4-1.733-2.146-2.73-4.746-2.73H136.22c-3 0-4.94 1.3-4.94 3.337v15.256z" fill="#e48e00"/><g fill="#00618a"><path d="M197.624 57.73c-4.147-.112-7.316.273-10.024 1.415-.77.325-1.997.333-2.123 1.298.423.443.49 1.105.825 1.65.647 1.047 1.74 2.45 2.713 3.184 1.064.803 2.16 1.663 3.303 2.36 2.03 1.238 4.296 1.945 6.25 3.184 1.152.73 2.296 1.65 3.42 2.476.555.408.93 1.042 1.65 1.297v-.118c-.38-.483-.477-1.147-.825-1.65l-1.533-1.533c-1.5-2-3.402-3.737-5.425-5.19-1.613-1.158-5.224-2.722-5.897-4.6l-.118-.118c1.144-.13 2.483-.543 3.54-.825 1.773-.475 3.358-.353 5.19-.825l2.477-.708v-.472c-.926-.95-1.586-2.207-2.595-3.066-2.64-2.25-5.523-4.495-8.49-6.37-1.646-1.04-3.68-1.714-5.425-2.595-.587-.296-1.618-.45-2.005-.944-.916-1.168-1.415-2.65-2.122-4-1.48-2.85-2.934-5.964-4.246-8.963-.895-2.045-1.48-4.062-2.594-5.897-5.355-8.804-11.12-14.118-20.048-19.34-1.9-1.11-4.187-1.55-6.605-2.123l-3.892-.236c-.792-.33-1.616-1.3-2.36-1.77-2.958-1.87-10.545-5.933-12.736-.6-1.383 3.373 2.067 6.664 3.302 8.374.866 1.2 1.976 2.543 2.594 3.892.407.886.478 1.775.826 2.713.857 2.3 1.603 4.823 2.712 6.958.56 1.08 1.178 2.218 1.887 3.184.435.593 1.18.854 1.297 1.77-.728 1.02-.77 2.6-1.18 3.892-1.843 5.812-1.148 13.035 1.533 17.337.823 1.32 2.76 4.152 5.425 3.066 2.33-.95 1.8-3.89 2.477-6.486.15-.59.058-1.02.354-1.415v.118l2.123 4.245c1.57 2.53 4.36 5.175 6.722 6.96 1.225.925 2.2 2.525 3.774 3.066v-.118h-.118c-.307-.48-.787-.677-1.18-1.06-.923-.905-1.95-2.03-2.713-3.066-2.15-2.918-4.048-6.11-5.778-9.435-.826-1.587-1.545-3.338-2.24-4.953-.268-.623-.265-1.564-.825-1.887-.763 1.184-1.887 2.14-2.477 3.538-.944 2.234-1.066 4.958-1.415 7.784-.207.074-.115.023-.236.118-1.642-.396-2.22-2.087-2.83-3.538-1.544-3.67-1.83-9.576-.472-13.798.35-1.092 1.94-4.534 1.297-5.543-.307-1.007-1.32-1.6-1.887-2.36-.7-.95-1.402-2.204-1.887-3.302-1.264-2.86-1.854-6.07-3.184-8.963-.636-1.382-1.71-2.78-2.594-4-.978-1.36-2.073-2.364-2.83-4-.27-.585-.636-1.52-.236-2.123a.93.93 0 0 1 .708-.708c.684-.527 2.59.175 3.302.472 1.89.786 3.47 1.534 5.072 2.595.77.5 1.547 1.496 2.476 1.77h1.06c1.66.382 3.52.12 5.07.59 2.742.833 5.198 2.13 7.43 3.538 6.798 4.292 12.355 10.402 16.157 17.7.612 1.173.876 2.294 1.415 3.538 1.087 2.5 2.456 5.093 3.538 7.547 1.08 2.45 2.13 4.92 3.656 6.958.802 1.07 3.9 1.646 5.307 2.24.987.417 2.603.852 3.538 1.415 1.785 1.077 3.515 2.36 5.19 3.54.837.59 3.41 1.883 3.538 2.948z"/><path d="M144.91 12.798c-.865-.016-1.476.094-2.123.236v.118h.118c.412.848 1.14 1.393 1.65 2.123l1.18 2.476.118-.118c.73-.515 1.065-1.338 1.06-2.595-.293-.308-.336-.694-.59-1.062-.337-.49-1-.768-1.415-1.18z" fill-rule="evenodd"/></g><path d="M194.855 91.708c0 2.97 2.347 4.972 4.972 4.972s4.972-2.002 4.972-4.972-2.347-4.972-4.972-4.972-4.972 2.002-4.972 4.972zm8.83 0c0 2.254-1.723 3.938-3.86 3.938-2.16 0-3.86-1.684-3.86-3.938s1.698-3.938 3.86-3.938c2.135 0 3.86 1.684 3.86 3.938zm-2.52 2.838h1.113l-1.63-2.492c.875-.093 1.537-.518 1.537-1.552 0-1.154-.73-1.63-2.134-1.63h-2.215v5.675h.955v-2.453h.888l1.485 2.453zm-2.374-3.25v-1.63h1.1c.57 0 1.26.106 1.26.77 0 .795-.623.862-1.34.862h-1.02z" fill="#e48e00" fill-rule="evenodd"/>
    </symbol>
    <symbol id="git" viewBox="0 0 32 32">
        <path d="M31.396 14.575L17.425.604a2.06 2.06 0 0 0-2.914 0l-2.9 2.9 3.68 3.68c.856-.3 1.836-.095 2.518.587a2.45 2.45 0 0 1 .581 2.533l3.547 3.547c.858-.296 1.848-.105 2.533.582a2.45 2.45 0 1 1-3.469 3.468c-.72-.72-.898-1.78-.534-2.667l-3.308-3.308v8.705a2.5 2.5 0 0 1 .65.464 2.45 2.45 0 1 1-3.468 3.468 2.45 2.45 0 0 1 0-3.468c.237-.236.5-.415.803-.535v-8.786c-.292-.12-.566-.297-.803-.535a2.45 2.45 0 0 1-.528-2.681l-3.63-3.628-9.58 9.57a2.06 2.06 0 0 0 0 2.915l13.972 13.97a2.06 2.06 0 0 0 2.914 0L31.396 17.5a2.06 2.06 0 0 0 0-2.915" fill="#f03c2e"/>
    </symbol>
    <symbol id="mexico" viewBox="0 0 36 36" aria-hidden="true" role="img" class="iconify iconify--twemoji" preserveAspectRatio="xMidYMid meet">
        <path fill="#006847" d="M4 5a4 4 0 0 0-4 4v18a4 4 0 0 0 4 4h7V5H4z"></path><path fill="#CE1126" d="M32 5h-7v26h7a4 4 0 0 0 4-4V9a4 4 0 0 0-4-4z"></path><path fill="#EEE" d="M11 5h14v26H11z"></path><path fill="#A6D388" d="M23 18a5 5 0 1 1-10 0h-1a6 6 0 0 0 12 0h-1z"></path><path d="M13.543 20.269a.498.498 0 0 0-.673-.218a.5.5 0 0 0-.219.673c.09.177.189.35.296.516v.001l.004.006v.001l.008.011v.001l.003.006l.001.002l.004.005v.001l.003.005v.002l.003.005l.001.002l.003.005l.001.002l.003.004l.002.003l.002.003l.001.003l.003.005l.001.001l.002.003l.003.006l.001.002l.003.005l.001.002l.007.01v.001l.005.007v.001c.052.077.105.151.161.226a.497.497 0 0 0 .697.101a.499.499 0 0 0 .103-.699a5.96 5.96 0 0 1-.43-.71zm-.497-1.582a5.282 5.282 0 0 1-.046-.833a.5.5 0 0 0-.485-.514l-.036.001a.5.5 0 0 0-.478.485a8.061 8.061 0 0 0-.001.311v.09l.001.005v.028l.001.003l-.001.002v.003l.001.002v.029l.001.003v.011l.001.019l.001.009v.011c.009.16.025.319.046.477a.5.5 0 0 0 .562.425a.503.503 0 0 0 .433-.567zm5.294 4.3l-.006.001l-.124.008a5.087 5.087 0 0 1-.71-.021a.5.5 0 0 0-.1.995l.125.011l.004.001l.002-.001l.003.001h.002l.006.001h.006l.003.001h.001l.006-.001l.003.001h.005l.006.001l.005.001h.013l.006.001h.013c.152.01.305.015.459.012h.039l.007-.001l.006.001h.015l.005-.001h.019l.006-.001h.001l.005.001l.001-.001l.006.001h.001l.005-.001h.008l.006-.001h.006l.001.001l.006-.001h.007l.005-.001h.02l.005-.001h.004l.004-.001l.004.001h.005l.004-.001h.005c.042-.001.085-.005.127-.007a.494.494 0 0 0 .453-.526a.493.493 0 0 0-.514-.473zm-2.439-.448a5.07 5.07 0 0 1-.724-.411a.495.495 0 0 0-.303-.087a.5.5 0 0 0-.263.911l.001.001l.006.003l.006.006l.006.004l.006.005c.266.181.548.34.842.476a.498.498 0 0 0 .663-.243a.498.498 0 0 0-.24-.665zm5.03-.398a.498.498 0 0 0-.248.08a5.142 5.142 0 0 1-.734.387a.498.498 0 0 0 .213.96a.528.528 0 0 0 .173-.038l.134-.06h.002l.006-.004l.002-.001l.004-.002h.004l.004-.002l.002-.002l.006-.001l.002-.002l.003-.002l.005-.002l.003-.001l.005-.002l.002-.001l.005-.002l.002-.001c.003-.002.003-.003.005-.003l.002-.001l.006-.003h.002l.006-.003l.006-.003l.002-.001l.005-.003l.002-.001l.006-.003l.001-.001l.007-.001l.007-.004l.002-.001l.004-.003h.002l.006-.004l.008-.002l.006-.004h.001l.007-.004l.001-.001l.014-.006l.007-.003l.014-.008l.008-.003l.006-.003h.001l.014-.008v-.001l.006-.002h.001l.022-.012l.007-.002l.014-.008l.007-.004h.001c.001-.001.003-.002.007-.002c.002-.003.004-.004.006-.005l.008-.004l.006-.003v-.001l.014-.006h.001l.007-.004l.001-.001l.005-.003h.001l.007-.004l.006-.003h.002l.006-.004v-.001l.007-.003l.001-.001l.006-.003v-.001l.006-.002l.002-.001l.004-.003l.003-.001l.005-.003l.002-.001l.005-.003l.002-.001l.006-.002c-.001-.001 0-.001.001-.001l.006-.003l.002-.001l.004-.003l.002-.001l.006-.003l.002-.001c0-.002.002-.002.004-.003l.003-.001l.004-.002l.003-.002l.004-.002l.003-.002l.003-.002l.003-.003l.005-.001l.004-.001l.002-.002l.004-.002l.004-.003l.002-.001l.004-.002l.004-.003l.003-.002c.002.001.003 0 .005-.001l.002-.002l.004-.002l.003-.002l.003-.002l.004-.002l.004-.003l.002-.001c.002-.001.006-.001.008-.003c-.002-.001-.002-.001 0-.001l.004-.002l.007-.005l.002-.001l.007-.003v-.001l.012-.006l.008-.005a.095.095 0 0 1 .02-.011h.001c.063-.038.128-.077.19-.117a.5.5 0 0 0 .152-.69a.554.554 0 0 0-.457-.225zm2.571-4.618l-.024.001a.5.5 0 0 0-.479.498c0 .277-.025.557-.072.829a.5.5 0 0 0 .987.168v-.005l.001-.002l.001-.002l-.001-.002l.001-.002v-.002l.001-.002v-.003l.001-.002v-.009c.002-.001.002-.003.002-.004v-.006a6.23 6.23 0 0 0 .052-.391l-.001-.001l.001-.003v-.001l.001-.004v-.011l.002-.003v-.001l-.001-.003v-.002l.001-.003v-.004l.002-.001l-.002-.003v-.004c.002-.001.002-.002.002-.003v-.019l.002-.003v-.001a6.22 6.22 0 0 0 .021-.495a.5.5 0 0 0-.498-.499zm-.443 2.696a.5.5 0 0 0-.68.196a4.853 4.853 0 0 1-.463.692a.5.5 0 0 0 .783.622c.116-.146.227-.299.33-.455c.002-.007.007-.014.011-.02l.001-.001l.004-.006v-.001l.004-.007c.002-.002.004-.004.004-.006l.001.001l.004-.006v-.001a.01.01 0 0 0 .003-.007l.002-.001l.004-.006v-.001c.002-.001.002-.003.003-.005l.001-.001l.004-.006l.001-.002l.002-.005l.003-.002l.002-.005h.002l.002-.006l.001-.002l.004-.004l.001-.002c.001-.002.001-.004.003-.005l.001-.003l.004-.003c0-.001 0-.002.002-.003v-.004l.003-.002l.003-.005l.001-.002l.003-.006l.002-.002l.002-.004l.002-.003c0-.001 0-.002.002-.003c0-.001 0-.002.002-.003l.003-.005l.001-.003l.002-.003l.002-.003c.002-.001.002-.002.002-.003c.002-.001.002-.002.002-.004l.002-.003l.003-.004l.003-.004v-.003l.002-.003l.003-.004l.003-.003v-.003l.004-.005v-.003c.002-.001.003-.002.003-.004l.002-.002l.002-.003l.003-.005l.002-.003v-.002l.004-.005c0-.001 0-.002.002-.003l.001-.003l.003-.004l.002-.004l.002-.003c.001-.001 0-.003.002-.004c0-.001 0-.002.002-.002l.002-.005l.002-.002l.002-.006l.002-.001l.002-.004l.002-.002l.002-.005l.002-.002l.002-.006c.002-.001 0-.002 0-.002l.004-.005l.001-.002l.004-.005v-.001l.003-.006l.002-.002l.002-.006v-.001l.005-.005l.003-.006v-.001l.004-.007l.002-.001l.025-.047a.498.498 0 0 0-.199-.672z" fill="#5C913B"></path><ellipse fill="#55ACEE" cx="18" cy="21" rx="3" ry="1"></ellipse><ellipse fill="#FFCC4D" cx="18.5" cy="21" rx="1.5" ry="1"></ellipse><path fill="#5C913B" d="M19.117 21.274a.503.503 0 0 1-.44-.739c.16-.294.328-.561.502-.795a10 10 0 0 1-.43.009c-.276 0-.528-.225-.528-.501s.195-.5.472-.5l.082.001c.296 0 .6-.018.872-.043a.49.49 0 0 1 .41.156c.014-.011.028-.022.043-.031c.1-.066.193-.119.28-.161a.49.49 0 0 1 .211-.094l.036-.007c.188-.061.32-.069.373-.069a.498.498 0 0 1 .477.647c-.082.266-.265.326-.586.39a1.2 1.2 0 0 0-.238.128a.507.507 0 0 1-.599-.034a.499.499 0 0 1-.002.614c-.17.217-.337.475-.496.768a.498.498 0 0 1-.439.261zm-1.42-1.589a.497.497 0 0 1-.066-.004a6.98 6.98 0 0 1-1.056-.221a.5.5 0 0 1-.337-.622l.006-.02l-.012.023a.5.5 0 0 1-.681.192a4.126 4.126 0 0 1-.907-.681a.5.5 0 0 1 .707-.707c.197.197.428.37.688.515a.5.5 0 0 1 .229.597a.5.5 0 0 1 .59-.256c.276.082.579.145.9.188a.5.5 0 0 1-.061.996zm-2.452-2.339c-.426 0-.977-.165-1.311-.559c-.512-.604-.813-1.379-.767-1.973c.012-.159-.143-.287-.295-.327c-.087-.023-.24-.037-.312.118a.25.25 0 0 1-.454-.21c.156-.339.506-.49.892-.392c.358.093.701.415.667.85c-.036.462.226 1.109.65 1.61c.223.264.611.371.875.381c.215.011.324-.038.347-.059c-.056-.133-.797-.523-1.113-.689c-.269-.141-.349-.335-.369-.472c-.067-.455.4-.916.852-1.36c.159-.157.31-.305.392-.414c.093-.123.078-.205.06-.256c-.069-.187-.368-.372-.728-.452c-.333-.074-.558-.235-.668-.479c-.145-.321-.068-.741.234-1.285a.25.25 0 1 1 .437.243c-.285.512-.257.744-.215.837c.042.092.149.157.32.195c.423.094.932.345 1.088.767c.089.241.044.501-.128.73c-.104.139-.268.3-.441.471c-.258.254-.739.727-.708.931c.006.042.061.079.107.102c.751.394 1.25.679 1.352 1.028a.456.456 0 0 1-.042.359c-.097.169-.299.273-.585.299c-.043.004-.09.006-.137.006z"></path><ellipse fill="#FFCC4D" cx="19.5" cy="18" rx=".5" ry="1"></ellipse><path fill="#FFCC4D" d="M17.292 17.188c0 .288-.345.521-.771.521c-.425 0-.771-.233-.771-.521s.345-.521.771-.521c.425 0 .771.233.771.521zm-1.187-4.627c.05.212-.227.46-.619.553c-.392.093-.75-.004-.801-.216c-.05-.213.227-.461.618-.554c.393-.092.752.004.802.217z"></path><path fill="#C1694F" d="M22.533 17.955c.09.07.243-.729.22-.978c0-.017-.029-.546.083-.924c.069-.128.073-1.083-.033-1.334c.084-.007.185-.034.197-.136c-.388.143-.479-.817-.852-1.369c-.362-.553-.811-.875-1.28-1.211a.979.979 0 0 1 .162-.27c-.575.288-1.471-.755-2.795-.677c-.297.029-.438.047-.514.229c-.247.02-.498.076-.498.401c0 .078.071.22.229.221c.216.063.392.014.539.316l.039.312s-.193-.247-.299-.286l.065-.133c-.1-.058-.277-.011-.277-.011s-.385-.18-.694-.132l-.06-.25c-.054.154-.175.146-.192.291c-.034-.104-.079-.233-.111-.337c-.109.148-.077.308-.116.462c-.042.036-.128.037-.15-.062c-.011-.122-.026-.133-.026-.278c-.078.137-.172.204-.203.439l-.083-.26c.003.307-.261.49-.511.707c-.071.13.011.131.017.198l.132.066l.237-.017c.039.049.007.053.11.084c.276.077.62-.254.89.267c-.124.104-.249.347-.209.393c.05 0-.1.07.102.006c-.21.204-.352.473-.352.489c-.024.058.084-.008.062.097l.05-.006c-.479.518-.016 1.075-.067 1.374c.08.129.09-.003.19-.016c.084.368.326.591.474.882l-.312.003c.007.138.132.269.231.39l-.209.066a1.128 1.128 0 0 0-.352.274c-.069.168.333.208.527.238l-.007.203c.303.029.653-.061.653-.078l.076-.059l.171.094c.057 0 .146-.228.105-.403c.11.131.214.342.324.474l.103-.014c.094.149.223.297.317.446l.105.04c.061-.021.113-.028.146-.148l.048.084l.166-.114l.116-.023l.087.142c.051-.019.101-.13.104-.248c.052.103.066.095.104.122l.077-.162l.415.388l.314.018c.112.076.419.124.471.001c.252.108.549-.014.534-.134c.232.092.589.03.589.015c.043-.005.153-.113.049-.194c-.767-.534-1.904-1.418-2.343-1.631c0-.158-.119-.727-.247-.883l.104-.174c.299.279.407.252.566.296c.17.135.229.34.399.527l.152.028a2.583 2.583 0 0 0-.554-.873c.164.082.436.301.618.46c.12.201.155.361.265.613c.08.051.162.238.151.083c-.019-.291-.224-.752-.224-.785c.326.258.322.66.421.905c.083.124.125.29.161.251l-.096-.756l-.056-.277c.241.139.327.669.44 1.305c0 .101.041.212.035.277c.052.064.111.241.11.136c0 0 0-1.034-.071-1.271c-.018-.127.03-.333.03-.333c.088.429.182.894.271 1.322v.315l.132.133c.025-.26.055-.518.081-.776l-.099-.925v-.264c-.002-.093.085-.076.14.03c.013.227.013.404.022.63c.039.258.066.447.085.776c.011.266.023.904.079.893z"></path>
    </symbol>
</svg>